<svg width="120" height="40" viewBox="0 0 120 40" fill="none" xmlns="http://www.w3.org/2000/svg">
  <path d="M20 10C31.0457 10 40 18.9543 40 30C40 31.0457 39.9114 32.0914 39.7342 33.0914C38.0571 27.0457 32.5714 22.8571 26 22.8571C19.4286 22.8571 13.9429 27.0457 12.2657 33.0914C12.0886 32.0914 12 31.0457 12 30C12 18.9543 20.9543 10 32 10H20Z" fill="#2C7A7B"/>
  <path d="M26 34C29.3137 34 32 31.3137 32 28C32 24.6863 29.3137 22 26 22C22.6863 22 20 24.6863 20 28C20 31.3137 22.6863 34 26 34Z" fill="#81E6D9"/>
  <text x="50" y="28" font-family="Inter" font-size="24" font-weight="700" fill="#2C7A7B">Heally</text>
</svg> 