<?xml version="1.0" encoding="UTF-8"?>
<svg width="800" height="600" viewBox="0 0 800 600" fill="none" xmlns="http://www.w3.org/2000/svg">
  <!-- Background Circles -->
  <circle cx="400" cy="300" r="250" fill="url(#gradient1)" opacity="0.1"/>
  <circle cx="400" cy="300" r="200" fill="url(#gradient2)" opacity="0.15"/>
  
  <!-- Connection Lines -->
  <path d="M250 300 C 300 200, 500 200, 550 300" stroke="url(#gradient3)" stroke-width="4" stroke-linecap="round"/>
  <path d="M250 300 C 300 400, 500 400, 550 300" stroke="url(#gradient3)" stroke-width="4" stroke-linecap="round"/>
  
  <!-- Connection Points -->
  <circle cx="250" cy="300" r="40" fill="url(#gradient4)"/>
  <circle cx="550" cy="300" r="40" fill="url(#gradient4)"/>
  
  <!-- Center Icon -->
  <circle cx="400" cy="300" r="60" fill="url(#gradient5)"/>
  <path d="M370 300 L 430 300 M 400 270 L 400 330" stroke="white" stroke-width="6" stroke-linecap="round"/>
  
  <!-- Pulse Animations -->
  <circle cx="400" cy="300" r="80" stroke="url(#gradient6)" stroke-width="2" opacity="0.5">
    <animate attributeName="r" values="60;90;60" dur="2s" repeatCount="indefinite"/>
    <animate attributeName="opacity" values="0.5;0;0.5" dur="2s" repeatCount="indefinite"/>
  </circle>
  
  <!-- Gradients -->
  <defs>
    <linearGradient id="gradient1" x1="0%" y1="0%" x2="100%" y2="100%">
      <stop offset="0%" style="stop-color:#00BFA6"/>
      <stop offset="100%" style="stop-color:#00A896"/>
    </linearGradient>
    
    <linearGradient id="gradient2" x1="100%" y1="0%" x2="0%" y2="100%">
      <stop offset="0%" style="stop-color:#00BFA6"/>
      <stop offset="100%" style="stop-color:#64FFDA"/>
    </linearGradient>
    
    <linearGradient id="gradient3" x1="0%" y1="0%" x2="100%" y2="0%">
      <stop offset="0%" style="stop-color:#00BFA6"/>
      <stop offset="100%" style="stop-color:#00A896"/>
    </linearGradient>
    
    <linearGradient id="gradient4" x1="0%" y1="0%" x2="100%" y2="100%">
      <stop offset="0%" style="stop-color:#00BFA6"/>
      <stop offset="100%" style="stop-color:#00A896"/>
    </linearGradient>
    
    <linearGradient id="gradient5" x1="0%" y1="0%" x2="100%" y2="100%">
      <stop offset="0%" style="stop-color:#00BFA6"/>
      <stop offset="100%" style="stop-color:#00A896"/>
    </linearGradient>
    
    <linearGradient id="gradient6" x1="0%" y1="0%" x2="100%" y2="100%">
      <stop offset="0%" style="stop-color:#00BFA6"/>
      <stop offset="100%" style="stop-color:#64FFDA"/>
    </linearGradient>
  </defs>
</svg> 